<svg width="32" height="32" viewBox="0 0 32 32" fill="none" xmlns="http://www.w3.org/2000/svg">
    <g clip-path="url(#qeb26ucpsa)">
        <g clip-path="url(#wbwbhz3efb)" fill="#222">
            <path d="M18.25 6.853a4.5 4.5 0 0 1 5.019 7.24 1.5 1.5 0 0 0 .362 2.343A7.498 7.498 0 0 1 27.5 23v2.5h-5v.5c0 .356-.074.694-.208 1H28a1 1 0 0 0 1-1v-3a8.984 8.984 0 0 0-3.382-7.031 9.017 9.017 0 0 0-1.26-.845A5.972 5.972 0 0 0 26 11a6 6 0 0 0-8.735-5.342c.367.363.698.763.985 1.195z"/>
            <path fill-rule="evenodd" clip-rule="evenodd" d="M14.876 15.353a1.5 1.5 0 0 1 .393-1.26 4.5 4.5 0 1 0-6.538 0 1.5 1.5 0 0 1-.362 2.343A7.498 7.498 0 0 0 4.5 23v2.5h15V23a7.498 7.498 0 0 0-3.87-6.564 1.5 1.5 0 0 1-.754-1.083zm1.482-.23c.445.247.866.53 1.26.846A8.983 8.983 0 0 1 21 23v3a1 1 0 0 1-1 1H4a1 1 0 0 1-1-1v-3a8.983 8.983 0 0 1 3.382-7.031 9.014 9.014 0 0 1 1.26-.845A5.973 5.973 0 0 1 6 11a6 6 0 1 1 10.358 4.124z"/>
        </g>
    </g>
    <defs>
        <clipPath id="qeb26ucpsa">
            <path fill="#fff" d="M0 0h32v32H0z"/>
        </clipPath>
        <clipPath id="wbwbhz3efb">
            <path fill="#fff" d="M0 0h32v32H0z"/>
        </clipPath>
    </defs>
</svg>
