<svg width="32" height="32" viewBox="0 0 32 32" fill="none" xmlns="http://www.w3.org/2000/svg">
    <path d="M20.55 23.46a1.75 1.75 0 0 1 1.973-.07l4.343 2.747a.25.25 0 0 0 .384-.211V8.923a.25.25 0 0 0-.116-.212L21.72 5.29a.25.25 0 0 0-.281.01l-4.403 3.24a1.75 1.75 0 0 1-2.074 0L10.56 5.3a.25.25 0 0 0-.281-.01l-.401-.634.4.634L4.867 8.71a.25.25 0 0 0-.116.212v17.003a.25.25 0 0 0 .384.211l4.343-2.746a1.75 1.75 0 0 1 1.973.07l4.402 3.24a.25.25 0 0 0 .296 0l4.402-3.24z" stroke="#222" stroke-width="1.5"/>
    <path d="M11 23.5v-18h-1v18h1zM22 23.5v-18h-1v18h1zM16.5 26.5v-18h-1v18h1z" fill="#222"/>
</svg>
