<svg width="32" height="32" viewBox="0 0 32 32" fill="none" xmlns="http://www.w3.org/2000/svg">
    <path fill-rule="evenodd" clip-rule="evenodd" d="M22.122 24.025a1 1 0 0 0-1.127.04l-4.402 3.24a1 1 0 0 1-1.186 0l-4.402-3.24a1 1 0 0 0-1.127-.04L5.534 26.77A1 1 0 0 1 4 25.926V8.923a1 1 0 0 1 .466-.846l5.412-3.422a1 1 0 0 1 1.127.04l4.402 3.24a1 1 0 0 0 1.186 0l4.402-3.24a1 1 0 0 1 1.127-.04l5.413 3.422a1 1 0 0 1 .465.846v17.003a1 1 0 0 1-1.535.845l-4.343-2.746z" fill="#4373F4"/>
    <path d="M11 24.5v-20h-1v20h1zM22 24.5v-20h-1v20h1zM16.5 27.5v-20h-1v20h1z" fill="#fff"/>
</svg>
