<svg xmlns="http://www.w3.org/2000/svg" width="24" height="24" viewBox="0 0 24 24">
    <g fill="none" fill-rule="evenodd">
        <g fill="#222">
            <g>
                <g>
                    <g>
                        <g>
                            <path d="M16.919 7.88C15.759 6.72 14.165 6 12.396 6 8.858 6 6 8.864 6 12.4c0 3.536 2.858 6.4 6.396 6.4 2.986 0 5.475-2.04 6.188-4.8h-1.665c-.657 1.864-2.434 3.2-4.523 3.2-2.65 0-4.803-2.152-4.803-4.8 0-2.648 2.153-4.8 4.803-4.8 1.329 0 2.514.552 3.378 1.424L13.196 11.6H18.8V6l-1.881 1.88z" transform="translate(-316 -338) translate(12 82) translate(0 252) translate(236 4) translate(68)"/>
                        </g>
                    </g>
                </g>
            </g>
        </g>
    </g>
</svg>
