<svg width="64" height="64" viewBox="0 0 64 64" fill="none" xmlns="http://www.w3.org/2000/svg">
    <path d="M43.401 18.207h-2.8v-5.48a8.4 8.4 0 0 0-16.78 0v5.48h-2.8v-5.48a11.2 11.2 0 0 1 22.38 0v5.48z" fill="#474B52"/>
    <path d="M32.22 59.606c18.92-5.66 18.8-13.64 18.8-13.64v-26.14l-18.8-3.18v42.96z" fill="#FFD338"/>
    <path d="m32.22 61.067-.4-.12c-20-5.9-19.82-14.66-19.82-15.02v-27.28l20.22-3.42h.22l20 3.38v8.16h-2.8v-5.8l-17.4-2.94-17.42 2.94v24.96c0 .1.28 7 17.42 12.18 17-5.18 17.4-12.12 17.4-12.18v-10.46h2.8v10.46c0 .36 0 9.1-19.8 14.98l-.42.16z" fill="#474B52"/>
    <path d="M21.52 44.826h-2.56v-17.2h2.56v17.2zm.28-9.24a87.068 87.068 0 0 0 6.4-8h2.96c-2 2.72-4 5.52-6.22 8l7.3 9.18h-3.12l-7.32-9.18zM43.28 35.386a4.24 4.24 0 0 1 3.1 4.3c0 3.1-2 5.26-6.72 5.26a34.531 34.531 0 0 1-4.9-.44v-16.12a14.12 14.12 0 0 1 5-1.14c3.34 0 5.8 1.62 5.8 4.52a3.88 3.88 0 0 1-2.28 3.62zm-3.76-.74a3 3 0 0 0 3.38-2.78 2.84 2.84 0 0 0-3.1-2.66c-.844.021-1.68.17-2.48.44v5h2.2zm4.22 4.98c0-2.14-2-3.06-3.78-3.06h-2.68v6.22c.89.112 1.784.172 2.68.18 2.12 0 3.74-.9 3.74-3.34h.04z" fill="#474B52"/>
</svg>
