<svg width="32" height="32" viewBox="0 0 32 32" fill="none" xmlns="http://www.w3.org/2000/svg">
    <path d="M25.5 14v10.004h1V13.999h-1zM24 25.5H14v1h10v-1zm0-14h-2.5v1H24v-1zM12.5 24v-2.5h-1V24h1zm1.5 1.5a1.5 1.5 0 0 1-1.5-1.5h-1a2.5 2.5 0 0 0 2.5 2.5v-1zm11.5-1.496c0 .827-.67 1.496-1.5 1.496v1c1.38 0 2.5-1.114 2.5-2.496h-1zm1-10.005A2.5 2.5 0 0 0 24 11.5v1a1.5 1.5 0 0 1 1.5 1.5h1z" fill="#444"/>
    <path d="M5.5 7A1.5 1.5 0 0 1 7 5.5h11A1.5 1.5 0 0 1 19.5 7v11a1.5 1.5 0 0 1-1.5 1.5H7A1.5 1.5 0 0 1 5.5 18V7z" stroke="#444" stroke-linecap="round"/>
</svg>
