<svg xmlns="http://www.w3.org/2000/svg" width="24" height="24" viewBox="0 0 24 24">
    <path fill="none" fill-rule="evenodd" stroke="#222" d="M11.804 5.726c.509.046.61.146.66.273h0l1.624 4.049 4.361.282c.138.008.26.072.344.168.084.097.132.225.123.363-.01.137-.074.265-.18.353h0l-3.359 2.771 1.08 4.213c.034.134.01.269-.055.379-.065.11-.172.195-.306.23-.133.034-.273.012-.39-.061h0L12 16.42l-3.706 2.325c-.117.073-.253.092-.378.064-.124-.029-.238-.105-.312-.222-.072-.116-.094-.257-.06-.39h0l1.079-4.213-3.358-2.77c-.107-.089-.167-.211-.18-.339-.012-.127.025-.26.112-.366.088-.106.216-.172.354-.18h0l4.36-.282 1.625-4.049c.051-.128.15-.223.268-.273z"/>
</svg>
