<svg width="56" height="56" viewBox="0 0 56 56" fill="none" xmlns="http://www.w3.org/2000/svg">
    <path d="M9.808 23v5.046L6.538 23H3v10h3.525v-5.046L9.797 33h3.535V23H9.808zM51.151 29.26c1.252-.369 2.06-1.323 2.06-2.857 0-2.575-1.936-3.403-4.486-3.403h-4.403v10h3.523v-3.122L49.95 33H54l-2.848-3.74zm-1.732-2.037c-.205.176-.602.262-.929.262h-.752v-1.969h.742c.357 0 .762.09.958.269a.92.92 0 0 1 .223.333c.05.127.072.264.064.402a.89.89 0 0 1-.073.39.843.843 0 0 1-.233.313zM35.731 23h7.148v2.605h-3.657v1.177h3.367v2.458h-3.367v1.155h3.762V33h-7.258l.005-10zM21.815 23h-4.02l-3.707 10h3.92l.342-1.305h2.908L21.6 33h3.92l-3.705-10zm-2.888 6.383.83-3.298h.094l.83 3.298h-1.754zM31.134 23l-1.737 6.03H29.3L27.563 23H23.72l3.965 10h3.327l3.965-10h-3.843z" fill="#2DB400"/>
</svg>
