<svg width="32" height="32" viewBox="0 0 32 32" fill="none" xmlns="http://www.w3.org/2000/svg">
    <path d="M5.806 19C4.048 19.84 3 20.899 3 22.049 3 24.783 8.924 27 16.233 27c.427 0 .85-.008 1.267-.022M21 27c4.967-.713 8.5-2.54 8.5-4.681 0-1.274-1.25-2.436-3.307-3.319" stroke="#444" stroke-linecap="round"/>
    <path d="m16 24.5 2.5 2.5-2.5 2.5" stroke="#444" stroke-linecap="round"/>
    <path d="M12.618 6.5c.433.008.829.08 1.187.213.359.133.663.312.913.537.258.225.454.487.587.787.134.3.196.625.188.975 0 .534-.138.967-.413 1.3a2.92 2.92 0 0 1-.987.776c.55.208.946.495 1.187.862.25.358.375.813.375 1.363a2.904 2.904 0 0 1-.287 1.262 2.842 2.842 0 0 1-.725.925c-.3.242-.65.425-1.05.55-.4.125-.817.188-1.25.188-.475 0-.896-.059-1.263-.175a2.886 2.886 0 0 1-.937-.5 3.404 3.404 0 0 1-.675-.813 5.525 5.525 0 0 1-.463-1.1l1.525-.6c.034.125.092.275.175.45.084.175.171.333.263.475.1.133.212.258.337.375.134.108.28.2.438.275.166.075.358.113.575.113.275 0 .512-.038.712-.113a1.62 1.62 0 0 0 .513-.313c.142-.133.246-.283.312-.45.067-.166.1-.337.1-.512 0-.217-.025-.417-.075-.6a.828.828 0 0 0-.287-.463c-.15-.133-.371-.233-.663-.3-.291-.075-.679-.112-1.162-.112v-1.25a4.663 4.663 0 0 0 1.012-.113c.267-.066.475-.158.625-.274.15-.125.255-.267.313-.425.058-.167.087-.35.087-.55.009-.434-.104-.755-.337-.963-.225-.217-.542-.325-.95-.325-.375 0-.684.096-.925.287a1.546 1.546 0 0 0-.525.726 4.03 4.03 0 0 0-.138.587 33.148 33.148 0 0 1-.812-.137 12.724 12.724 0 0 0-.813-.15c.184-.942.559-1.642 1.125-2.1.575-.459 1.305-.688 2.188-.688zm4.596.25h2.538c.708 0 1.341.092 1.9.275a3.607 3.607 0 0 1 1.437.85c.4.375.704.85.913 1.425.216.575.325 1.254.325 2.037 0 .776-.109 1.455-.325 2.038a3.878 3.878 0 0 1-.9 1.463c-.384.383-.85.675-1.4.875-.55.191-1.167.287-1.85.287h-2.638V6.75zm2.425 7.762c.434 0 .821-.058 1.163-.175a2.28 2.28 0 0 0 .887-.562 2.52 2.52 0 0 0 .55-.988c.133-.4.2-.883.2-1.45 0-.566-.067-1.045-.2-1.437-.125-.4-.308-.72-.55-.963a2.057 2.057 0 0 0-.887-.537 3.587 3.587 0 0 0-1.163-.175h-.575v6.287h.575z" fill="#444"/>
</svg>
